<?xml version="1.0" encoding="utf-8"?>
<!-- Generator: Adobe Illustrator 25.3.1, SVG Export Plug-In . SVG Version: 6.00 Build 0)  -->
<svg version="1.1" id="Layer_1" xmlns="http://www.w3.org/2000/svg" xmlns:xlink="http://www.w3.org/1999/xlink" x="0px" y="0px"
	 width="282px" height="175px" viewBox="0 0 282 175" style="enable-background:new 0 0 282 175;" xml:space="preserve">
<style type="text/css">
	.st0{fill:#FEE624;}
</style>
<g>
	<path d="M216.6,59.3l-6.2-26.7L194,28.5l-0.7-7.8l-26-4.8L159,0H123l-8.2,15.9l-26,4.8L88,28.5l-16.4,4.1l-6.2,26.7H0
		c0,9.6,3.9,18.3,10.2,24.5c3.4,3.4,7.5,6.1,12,7.8c1.3,7.1,4.7,13.5,9.6,18.4c6.3,6.3,15,10.2,24.5,10.2h36.1l3.6,27.5l36,27.3
		h17.8l36-27.3l3.6-27.5h36.1c9.6,0,18.2-3.9,24.5-10.2c4.9-4.9,8.4-11.3,9.6-18.4c4.6-1.8,8.6-4.4,12-7.8
		c6.3-6.3,10.2-14.9,10.2-24.5H216.6z"/>
	<path class="st0" d="M216.6,59.3l-6.2-26.7L194,28.5l-0.7-7.8l-26-4.8L159,0H123l-8.2,15.9l-26,4.8L88,28.5l-16.4,4.1l-6.2,26.7H0
		c0,9.6,3.9,18.3,10.2,24.5c3.4,3.4,7.5,6.1,12,7.8c1.3,7.1,4.7,13.5,9.6,18.4c6.3,6.3,14.9,10.2,24.5,10.2h36.1l3.6,27.5l36,27.3
		V88.4h-4.5c-6.8,0-18.4-4.3-25.3-7.3l5.2-12.6c5.6,1.8,16.7,4.5,33.6,4.5c16.9,0,27.9-2.6,33.6-4.5l5.2,12.6
		c-7,3-18.6,7.3-25.3,7.3h-4.5V175l36-27.3l3.6-27.5h36.1c9.6,0,18.2-3.9,24.5-10.2c4.9-4.9,8.4-11.3,9.6-18.4
		c4.6-1.8,8.6-4.4,12-7.8c6.3-6.3,10.2-14.9,10.2-24.5H216.6z M202.9,39.9l4.7,20.4l0.9,4.1l-7.3,6.2l-3.9-5.8l-2.5-27L202.9,39.9z
		 M74.4,60.4l4.7-20.4l8-2l-2.5,27l-3.9,5.8l-7.3-6.2L74.4,60.4z M10.6,68.2h53.5l11.7,9.9L71.2,85H34.7C23.6,85,14.2,78,10.6,68.2z
		 M56.3,111.3c-11,0-20.5-7-24.1-16.8h37.2l16.1,16.8H56.3z M184.1,111.3l-2.8,2.9l-0.8,6l-2.9,22.6L158.9,157V97
		c10.2-1.5,23.2-7.1,27.3-9c0.7-0.3,1.2-0.5,1.3-0.6l3.8-1.8l-11.9-29l-3.3,1.7l-1,0.5c-0.1,0-11,5.3-34,5.3c-23,0-34-5.2-34-5.3
		l-1-0.5l-3.3-1.7l-11.9,29l3.8,1.8c0.1,0.1,0.6,0.3,1.3,0.6c4.1,1.9,17.1,7.5,27.3,9V157l-18.7-14.2l-2.9-22.6l-0.8-6l-2.8-2.9
		L81.8,94.5l-3.6-3.8L82,85l0.8-1.3l5-7.4l5.6-8.4l2.9-31.5l0.8-8.2l3.8-0.7l19.9-3.6l7.7-15h25.2l7.7,15l19.9,3.6l3.8,0.7l0.8,8.2
		l2.9,31.5l5.6,8.4l5,7.4l0.8,1.3l3.8,5.7l-3.6,3.8L184.1,111.3z M225.7,111.3h-29.2l16.1-16.8h37.2
		C246.2,104.3,236.7,111.3,225.7,111.3z M247.3,85h-36.5l-4.6-6.9l11.7-9.9h53.5C267.8,78,258.4,85,247.3,85z"/>
</g>
</svg>
